<?xml version="1.0" encoding="UTF-8" standalone="no"?>
<svg xmlns="http://www.w3.org/2000/svg" version="1.1">
<polygon points="600,266" fill="green" />
<polygon points="3,0 3,4 1,6 0,6 0,7 1,7 3,9 3,42 1,44 0,44 1,44 3,46 3,79 1,81 0,81 3,84 3,117 2,118 0,118 0,119 1,119 3,121 3,154 1,156 0,156 1,156 3,158 3,191 1,193 0,193 0,194 1,194 3,196 3,228 0,231 1,231 3,233 3,265 2,266 4,266 3,265 3,233 5,231 39,231 40,232 40,266 41,266 41,232 42,231 76,231 77,232 77,266 79,266 78,265 78,233 80,231 113,231 115,233 115,265 114,266 116,266 115,265 115,233 117,231 150,231 152,233 152,265 151,266 153,266 153,232 154,231 188,231 189,232 189,266 191,266 190,265 190,233 192,231 225,231 227,233 227,265 226,266 228,266 227,265 227,233 229,231 263,231 264,232 264,266 265,266 265,232 266,231 300,231 302,233 302,265 301,266 303,266 302,265 302,233 304,231 338,231 339,232 339,266 340,266 340,232 341,231 375,231 376,232 376,233 377,234 377,265 376,266 378,266 377,265 377,233 379,231 412,231 414,233 414,265 413,266 415,266 414,265 414,234 415,233 415,232 416,231 450,231 451,232 451,266 453,266 452,265 452,233 454,231 487,231 489,233 489,265 488,266 490,266 489,265 489,233 491,231 524,231 526,233 526,265 525,266 527,266 526,265 526,234 527,233 527,232 528,231 562,231 563,232 563,266 565,266 564,265 564,233 566,231 599,231 600,232 600,230 599,231 567,231 566,230 565,230 564,229 564,195 565,194 600,194 600,193 565,193 564,192 564,158 566,156 599,156 600,157 600,155 599,156 566,156 564,154 564,120 565,119 599,119 600,120 600,118 565,118 564,117 564,95 565,94 571,94 571,83 567,83 566,82 567,81 599,81 600,82 600,80 599,81 566,81 564,79 564,46 566,44 599,44 600,45 600,43 599,44 566,44 564,42 564,8 565,7 599,7 600,8 600,5 599,6 565,6 564,5 564,0 563,0 563,5 562,6 528,6 526,4 526,0 526,5 525,6 491,6 489,4 489,0 489,4 487,6 453,6 452,5 452,0 451,0 451,5 450,6 416,6 414,4 414,0 414,5 413,6 378,6 377,5 377,0 377,4 375,6 341,6 340,5 340,0 339,0 339,5 338,6 304,6 302,4 302,0 302,4 300,6 266,6 265,5 265,0 264,0 264,5 263,6 229,6 227,4 227,0 227,5 226,6 191,6 190,5 190,0 189,0 189,5 188,6 154,6 153,5 153,0 152,0 152,5 151,6 117,6 115,4 115,0 115,4 113,6 79,6 78,5 78,0 77,0 77,5 76,6 42,6 41,5 41,0 40,0 40,5 39,6 4,6 3,5" fill="green" />
</svg>